<?xml version="1.0" encoding="utf-8"?>
<!-- Generator: Adobe Illustrator 25.2.0, SVG Export Plug-In . SVG Version: 6.00 Build 0)  -->
<svg version="1.1" id="Layer_1" xmlns="http://www.w3.org/2000/svg" xmlns:xlink="http://www.w3.org/1999/xlink" x="0px" y="0px"
	 viewBox="0 0 24 24" style="enable-background:new 0 0 24 24;" xml:space="preserve">
<style type="text/css">
	.st0{fill:#1D1D1B;stroke:#000000;stroke-width:0.25;stroke-miterlimit:10;}
	.st1{fill:none;}
	.st2{fill:#FFFFFF;stroke:#000000;stroke-width:0.25;stroke-miterlimit:10;}
	.st3{fill:#1D1D1B;stroke:#1D1D1B;stroke-width:0.25;stroke-miterlimit:10;}
</style>
<path class="st0" d="M19.9,22.8H3.4c-0.4,0-0.9-0.4-0.9-1V3.5c0-0.5,0.4-1,0.9-1h16.4c0.4,0,0.9,0.4,0.9,1v18.3
	C20.8,22.4,20.4,22.8,19.9,22.8z"/>
<path class="st1" d="M15.6,2.4c3.4-2.5,7.7,0.4,7.9,4C23.7,6.6,23.8,6.8,24,7V0H13.5C14.4,0.6,15.2,1.4,15.6,2.4z"/>
<path class="st1" d="M21,22.4c-0.7,0.8-1.4,1.6-2,2.3h5v-4.8C23.1,20.7,22.1,21.5,21,22.4z"/>
<path class="st1" d="M3.1,5.3C4.4,3.2,6,1.1,8.1,0H0v10.8C0.9,8.8,2,6.9,3.1,5.3z"/>
<path class="st2" d="M19.2,22.3H2.8c-0.4,0-0.9-0.4-0.9-1V3c0-0.5,0.4-1,0.9-1h16.4c0.4,0,0.9,0.4,0.9,1v18.3
	C20.1,21.9,19.8,22.3,19.2,22.3z"/>
<path class="st3" d="M4,2H2.7C2.3,2,1.9,2.4,1.9,3v18.3c0,0.5,0.3,1,0.8,1h1.4L4,2L4,2z"/>
<path class="st0" d="M16,8.7H5.9C5.6,8.7,5.4,8.4,5.4,8l0,0c0-0.3,0.2-0.6,0.5-0.6H16c0.3,0,0.5,0.3,0.5,0.6l0,0
	C16.5,8.4,16.3,8.7,16,8.7z"/>
<path class="st0" d="M17.4,6.3H6C5.7,6.3,5.4,6,5.4,5.6l0,0C5.4,5.3,5.7,5,6,5h11.4c0.3,0,0.5,0.3,0.5,0.6l0,0
	C18,6,17.7,6.3,17.4,6.3z"/>
<path class="st2" d="M22.2,8.6h-2.1V7.4h2.1c0.2,0,0.3,0.1,0.3,0.3v0.6C22.5,8.5,22.4,8.6,22.2,8.6z"/>
<path class="st2" d="M21.5,10.3h-1.4V9.1h1.4c0.2,0,0.3,0.1,0.3,0.3V10C21.8,10.2,21.7,10.3,21.5,10.3z"/>
<path class="st2" d="M22.2,12.6h-2.1v-1.2h2.1c0.2,0,0.3,0.1,0.3,0.3v0.6C22.5,12.5,22.4,12.6,22.2,12.6z"/>
<path class="st2" d="M21.5,14.3h-1.4v-1.2h1.4c0.2,0,0.3,0.1,0.3,0.3V14C21.8,14.2,21.7,14.3,21.5,14.3z"/>
<path class="st0" d="M17.4,11.2H6c-0.3,0-0.6-0.3-0.6-0.7l0,0c0-0.3,0.2-0.6,0.6-0.6h11.3c0.3,0,0.6,0.3,0.6,0.6l0,0
	C17.9,10.9,17.7,11.2,17.4,11.2z"/>
<path class="st2" d="M17.3,20.5H6.1c-0.4,0-0.7-0.3-0.7-0.7v-0.6c0-0.4,0.3-0.7,0.7-0.7h11.2c0.4,0,0.7,0.3,0.7,0.7v0.6
	C17.9,20.2,17.6,20.5,17.3,20.5z"/>
</svg>
